<svg width="279" height="352" viewBox="0 0 279 352" fill="none" xmlns="http://www.w3.org/2000/svg">
<path d="M51.5 238L58.3853 247.784C60.0246 250.114 62.6949 251.5 65.5434 251.5C66.8319 251.5 68.1045 251.216 69.2704 250.667L74.7137 248.105C75.5663 247.704 76.3533 247.176 77.048 246.539C80.0064 243.827 80.9016 239.529 79.2717 235.861L77.367 231.576C76.4657 229.548 76 227.353 76 225.134V220.322C76 213.244 77.9493 206.303 81.6341 200.26L83.8221 196.672C86.919 191.593 90.8412 187.066 95.4274 183.277L102.656 177.306C108.469 172.504 115.337 169.147 122.698 167.512L129.068 166.096C132.309 165.376 135.675 165.441 138.886 166.286C147.358 168.515 156.321 165.204 161.308 158L162 157C167.892 150.126 175.519 144.957 184.087 142.031L191.5 139.5L208.764 135.301C209.585 135.101 210.427 135 211.272 135H219.819C223.442 135 225.873 131.282 224.421 127.963C224.143 127.328 224 126.642 224 125.949V114.374C224 110.798 224.318 107.23 224.949 103.711L227.5 89.5L227.863 82.7849C228.281 75.0448 226.809 67.3192 223.573 60.2757C221.21 55.1329 217.951 50.4512 213.949 46.4492L213.297 45.7974C210.112 42.6122 206.496 39.825 202.609 37.5469C196.954 34.2318 190.685 31.9475 184.219 30.8698L178.106 29.851C176.704 29.6174 175.286 29.5 173.865 29.5H166.61C163.684 29.5 160.904 28.2215 159 26C153.389 20.3886 146.724 15.9405 139.39 12.9109L134.065 10.7115C129.701 8.90911 125.155 7.58318 120.507 6.75679L119.071 6.50145C109.822 4.85719 100.315 5.42591 91.3279 8.16107C85.1505 10.0412 79.3202 12.9141 74.0658 16.6673L70.2837 19.3688C64.1204 23.7711 58.5522 28.9518 53.7174 34.782L44 46.5L34.8279 60.4162C31.2843 65.7928 28.2682 71.4992 25.8218 77.4557L25.498 78.2439C20.5471 90.2984 18 103.204 18 116.236V123.5L22 157L29.5 189L35.617 207.029C37.8661 213.658 40.8051 220.033 44.3856 226.048L51.5 238Z" fill="#EC86AC" stroke="black" stroke-width="10"/>
<path d="M73.9511 230.67L75.9621 237.374C76.9431 240.644 76.5235 244.174 74.8033 247.123C74.27 248.037 73.6211 248.879 72.8728 249.627L70.1981 252.302C68.4031 254.097 66.7764 256.052 65.3383 258.144L65.1969 258.35C63.0742 261.438 61.352 264.782 60.0716 268.303L59.6351 269.504C58.5475 272.494 57.7469 275.582 57.2441 278.724C56.4197 283.877 56.404 289.126 57.1974 294.283L57.332 295.158C57.7767 298.048 58.4477 300.899 59.3388 303.684L59.8111 305.16C61.2671 309.71 63.1516 314.111 65.4392 318.305L68 323L72.3562 329.223C74.1154 331.736 76.0908 334.091 78.2599 336.26L80.5892 338.589C81.859 339.859 83.2688 340.98 84.7915 341.932L87.0973 343.373C93.9766 347.673 102.786 347.325 109.305 342.496C111.089 341.175 113.083 340.164 115.203 339.506L121.776 337.466C124.92 336.49 128.139 335.774 131.4 335.324L141 334H151.542C154.841 334 158.134 334.284 161.385 334.85L166.961 335.819C167.651 335.939 168.325 336.139 168.969 336.415L169.636 336.701C174.32 338.709 179.697 336.112 181.037 331.197C181.342 330.078 181.876 329.034 182.605 328.132L187.922 321.549C190.629 318.198 193.768 315.22 197.257 312.693L202.39 308.976C205.125 306.996 208.028 305.259 211.066 303.786L213.552 302.581C219.77 299.566 226.59 298 233.5 298H238.422C241.904 298 244.363 294.589 243.262 291.285C243.088 290.765 243 290.22 243 289.672V284.588C243 281.871 243.304 279.163 243.906 276.514L244.388 274.393C245.128 271.138 246.17 267.959 247.501 264.898L248.131 263.448C249.703 259.834 251.771 256.456 254.277 253.414C256.418 250.814 258.862 248.479 261.556 246.458L264.589 244.183C265.195 243.729 265.841 243.33 266.519 242.991C270.797 240.851 273.5 236.478 273.5 231.695V230L272.868 222.625C272.291 215.892 271.033 209.235 269.113 202.756L268 199L263 182L258.923 170.511C257.976 167.843 256.782 165.269 255.356 162.824C252.154 157.336 247.836 152.582 242.679 148.869L241.43 147.97C239.147 146.326 236.728 144.864 234.212 143.606C226.853 139.926 218.716 138 210.489 138H208.445C201.531 138 194.666 139.163 188.138 141.44L187.306 141.73C180.154 144.225 173.478 147.918 167.563 152.65L160.554 158.256C159.524 159.081 158.622 160.054 157.879 161.145L155.693 164.35C153.277 167.893 148.645 169.157 144.765 167.331C143.603 166.784 142.334 166.5 141.049 166.5H132.348C126.499 166.5 120.701 167.577 115.242 169.676L113.999 170.154C107.396 172.694 101.346 176.488 96.1842 181.327L91.6888 185.542C89.2334 187.844 86.9621 190.335 84.8957 192.991L82.4213 196.173C79.1686 200.355 76.719 205.103 75.1967 210.178L73.9511 214.33C72.3522 219.659 72.3522 225.341 73.9511 230.67Z" fill="#F4D4A1" stroke="black" stroke-width="10"/>
<path d="M46 229L54.5237 242.907C55.1732 243.967 55.9183 244.965 56.7498 245.889C61.555 251.228 63.1922 258.704 61.0584 265.562L58.4944 273.804C57.8329 275.93 57.3727 278.113 57.1199 280.326L56.2468 287.965C55.7577 292.245 56.4124 296.578 58.1441 300.523L63.4669 312.647C64.0952 314.078 63.8227 315.745 62.7712 316.902C61.0832 318.758 58.1157 318.597 56.6397 316.567L55.5 315L45.3432 302.135C37.1387 291.742 30.0884 280.489 24.3164 268.573C19.7804 259.208 16.0528 249.473 13.1742 239.474L11.9255 235.136C9.31178 226.057 7.3447 216.804 6.03904 207.446L5 200V176V149L7.91292 126.668C7.97069 126.225 8.08983 125.792 8.26691 125.382L10.5624 120.066C12.1195 116.46 17.5 117.572 17.5 121.5L20.1683 144.921C21.3874 155.623 23.4691 166.209 26.3929 176.575L29.0157 185.874C31.6683 195.279 35.0066 204.476 39.0038 213.393L46 229Z" fill="#EED264" stroke="black" stroke-width="10"/>
<path d="M13 120L18 104" stroke="black" stroke-width="10"/>
<line x1="9.50971" y1="120.549" x2="14.5097" y2="119.549" stroke="black" stroke-width="5"/>
<line x1="19.3575" y1="88.8321" x2="7.35748" y2="122.832" stroke="black" stroke-width="5"/>
<line x1="57.2941" y1="320.596" x2="68.2941" y2="328.596" stroke="black"/>
<line x1="61.2774" y1="322.584" x2="64.2774" y2="324.584" stroke="black"/>
<line x1="64" y1="325.5" x2="65" y2="325.5" stroke="black"/>
<line x1="59.2906" y1="322.593" x2="66.2906" y2="327.593" stroke="black"/>
<line x1="56.2684" y1="321.578" x2="67.2684" y2="328.578" stroke="black"/>
<line x1="64.3536" y1="326.646" x2="67.3536" y2="329.646" stroke="black"/>
<line x1="219.5" y1="122" x2="219.5" y2="131" stroke="black"/>
<line x1="228.5" y1="125" x2="228.5" y2="137" stroke="black"/>
<line x1="229.5" y1="132" x2="229.5" y2="137" stroke="black"/>
<path d="M71.7308 124.031C78.5506 127.969 83.8006 132.79 86.8338 137.252C90.0197 141.939 90.1312 145.161 89.1804 146.807C88.2296 148.454 85.3842 149.968 79.732 149.553C74.3507 149.157 67.5506 147.021 60.7308 143.084C53.911 139.146 48.6609 134.325 45.6277 129.863C42.4418 125.175 42.3303 121.954 43.2811 120.307C44.2319 118.661 47.0773 117.146 52.7295 117.562C58.1108 117.958 64.911 120.094 71.7308 124.031Z" fill="#E9F3EB" stroke="black" stroke-width="7"/>
<path d="M154.461 63.9971C159.709 70.2526 163.16 76.7847 164.597 82.1711C166.113 87.8577 165.121 90.9508 163.711 92.134C162.301 93.3172 159.082 93.7574 153.745 91.2764C148.69 88.9265 142.857 84.3939 137.608 78.1385C132.359 71.883 128.908 65.3509 127.471 59.9645C125.955 54.2779 126.947 51.1848 128.357 50.0016C129.768 48.8183 132.986 48.3781 138.323 50.8591C143.378 53.2091 149.212 57.7417 154.461 63.9971Z" fill="#8BB3B8" stroke="black" stroke-width="7"/>
<circle cx="101" cy="294" r="6" fill="#322200"/>
<ellipse cx="114" cy="263.5" rx="9" ry="12.5" fill="#322200"/>
</svg>
