<svg width="1440" height="416" viewBox="0 0 1440 416" fill="none" xmlns="http://www.w3.org/2000/svg">
<rect width="1440" height="416" fill="#FAFAFA"/>
<g filter="url(#filter0_d)">
<rect x="124" y="38" width="1192" height="307" rx="50" fill="#F2F2F2"/>
</g>
<line x1="303.5" y1="218.5" x2="353.5" y2="218.5" stroke="#565656" stroke-width="7" stroke-linecap="round"/>
<line x1="706.5" y1="218.5" x2="756.5" y2="218.5" stroke="#565656" stroke-width="7" stroke-linecap="round"/>
<line x1="1072.5" y1="218.5" x2="1122.5" y2="218.5" stroke="#565656" stroke-width="7" stroke-linecap="round"/>
<path d="M270.594 112.539C270.594 111.432 270.203 110.586 269.422 110C268.641 109.401 267.234 108.776 265.203 108.125C263.172 107.461 261.564 106.81 260.379 106.172C257.15 104.427 255.535 102.077 255.535 99.1211C255.535 97.5846 255.965 96.2174 256.824 95.0195C257.697 93.8086 258.94 92.8646 260.555 92.1875C262.182 91.5104 264.005 91.1719 266.023 91.1719C268.055 91.1719 269.865 91.543 271.453 92.2852C273.042 93.0143 274.272 94.0495 275.145 95.3906C276.03 96.7318 276.473 98.2552 276.473 99.9609H270.613C270.613 98.6589 270.203 97.6497 269.383 96.9336C268.562 96.2044 267.41 95.8398 265.926 95.8398C264.493 95.8398 263.38 96.1458 262.586 96.7578C261.792 97.3568 261.395 98.151 261.395 99.1406C261.395 100.065 261.857 100.84 262.781 101.465C263.719 102.09 265.092 102.676 266.902 103.223C270.236 104.225 272.664 105.469 274.188 106.953C275.711 108.438 276.473 110.286 276.473 112.5C276.473 114.961 275.542 116.895 273.68 118.301C271.818 119.694 269.311 120.391 266.16 120.391C263.973 120.391 261.98 119.993 260.184 119.199C258.387 118.392 257.013 117.292 256.062 115.898C255.125 114.505 254.656 112.891 254.656 111.055H260.535C260.535 114.193 262.41 115.762 266.16 115.762C267.553 115.762 268.641 115.482 269.422 114.922C270.203 114.349 270.594 113.555 270.594 112.539ZM301.98 91.5625V110.293C301.98 113.405 301.004 115.866 299.051 117.676C297.111 119.486 294.454 120.391 291.082 120.391C287.762 120.391 285.125 119.512 283.172 117.754C281.219 115.996 280.223 113.581 280.184 110.508V91.5625H286.043V110.332C286.043 112.194 286.486 113.555 287.371 114.414C288.27 115.26 289.507 115.684 291.082 115.684C294.376 115.684 296.049 113.952 296.102 110.488V91.5625H301.98ZM329.109 110.527C328.888 113.587 327.755 115.996 325.711 117.754C323.68 119.512 320.997 120.391 317.664 120.391C314.018 120.391 311.147 119.167 309.051 116.719C306.967 114.258 305.926 110.885 305.926 106.602V104.863C305.926 102.129 306.408 99.7201 307.371 97.6367C308.335 95.5534 309.708 93.9583 311.492 92.8516C313.289 91.7318 315.372 91.1719 317.742 91.1719C321.023 91.1719 323.667 92.0508 325.672 93.8086C327.677 95.5664 328.836 98.0339 329.148 101.211H323.289C323.146 99.375 322.632 98.0469 321.746 97.2266C320.874 96.3932 319.539 95.9766 317.742 95.9766C315.789 95.9766 314.324 96.6797 313.348 98.0859C312.384 99.4792 311.889 101.647 311.863 104.59V106.738C311.863 109.811 312.326 112.057 313.25 113.477C314.188 114.896 315.659 115.605 317.664 115.605C319.474 115.605 320.822 115.195 321.707 114.375C322.605 113.542 323.12 112.259 323.25 110.527H329.109ZM343.484 109.59H338.816V120H332.957V91.5625H343.523C346.883 91.5625 349.474 92.3112 351.297 93.8086C353.12 95.306 354.031 97.4219 354.031 100.156C354.031 102.096 353.608 103.717 352.762 105.02C351.928 106.309 350.659 107.337 348.953 108.105L355.105 119.727V120H348.816L343.484 109.59ZM338.816 104.844H343.543C345.014 104.844 346.154 104.473 346.961 103.73C347.768 102.975 348.172 101.94 348.172 100.625C348.172 99.2839 347.788 98.2292 347.02 97.4609C346.264 96.6927 345.099 96.3086 343.523 96.3086H338.816V104.844ZM381.863 106.426C381.863 109.225 381.368 111.68 380.379 113.789C379.389 115.898 377.97 117.526 376.121 118.672C374.285 119.818 372.176 120.391 369.793 120.391C367.436 120.391 365.333 119.824 363.484 118.691C361.635 117.559 360.203 115.944 359.188 113.848C358.172 111.738 357.658 109.316 357.645 106.582V105.176C357.645 102.376 358.146 99.9154 359.148 97.793C360.164 95.6576 361.59 94.0234 363.426 92.8906C365.275 91.7448 367.384 91.1719 369.754 91.1719C372.124 91.1719 374.227 91.7448 376.062 92.8906C377.911 94.0234 379.337 95.6576 380.34 97.793C381.355 99.9154 381.863 102.37 381.863 105.156V106.426ZM375.926 105.137C375.926 102.155 375.392 99.8893 374.324 98.3398C373.257 96.7904 371.733 96.0156 369.754 96.0156C367.788 96.0156 366.271 96.7839 365.203 98.3203C364.135 99.8438 363.595 102.083 363.582 105.039V106.426C363.582 109.329 364.116 111.582 365.184 113.184C366.251 114.785 367.788 115.586 369.793 115.586C371.759 115.586 373.27 114.818 374.324 113.281C375.379 111.732 375.913 109.479 375.926 106.523V105.137ZM400.867 112.539C400.867 111.432 400.477 110.586 399.695 110C398.914 109.401 397.508 108.776 395.477 108.125C393.445 107.461 391.837 106.81 390.652 106.172C387.423 104.427 385.809 102.077 385.809 99.1211C385.809 97.5846 386.238 96.2174 387.098 95.0195C387.97 93.8086 389.214 92.8646 390.828 92.1875C392.456 91.5104 394.279 91.1719 396.297 91.1719C398.328 91.1719 400.138 91.543 401.727 92.2852C403.315 93.0143 404.546 94.0495 405.418 95.3906C406.303 96.7318 406.746 98.2552 406.746 99.9609H400.887C400.887 98.6589 400.477 97.6497 399.656 96.9336C398.836 96.2044 397.684 95.8398 396.199 95.8398C394.767 95.8398 393.654 96.1458 392.859 96.7578C392.065 97.3568 391.668 98.151 391.668 99.1406C391.668 100.065 392.13 100.84 393.055 101.465C393.992 102.09 395.366 102.676 397.176 103.223C400.509 104.225 402.938 105.469 404.461 106.953C405.984 108.438 406.746 110.286 406.746 112.5C406.746 114.961 405.815 116.895 403.953 118.301C402.091 119.694 399.585 120.391 396.434 120.391C394.246 120.391 392.254 119.993 390.457 119.199C388.66 118.392 387.286 117.292 386.336 115.898C385.398 114.505 384.93 112.891 384.93 111.055H390.809C390.809 114.193 392.684 115.762 396.434 115.762C397.827 115.762 398.914 115.482 399.695 114.922C400.477 114.349 400.867 113.555 400.867 112.539ZM427.84 107.676H416.59V115.293H429.793V120H410.73V91.5625H429.754V96.3086H416.59V103.086H427.84V107.676Z" fill="#565656"/>
<path d="M640.742 91.5625L648.047 112.188L655.312 91.5625H663.008V120H657.129V112.227L657.715 98.8086L650.039 120H646.016L638.359 98.8281L638.945 112.227V120H633.086V91.5625H640.742ZM684.531 114.141H674.258L672.305 120H666.074L676.66 91.5625H682.09L692.734 120H686.504L684.531 114.141ZM675.84 109.395H682.949L679.375 98.75L675.84 109.395ZM701.25 115.293H713.691V120H695.391V91.5625H701.25V115.293ZM734.453 96.3086H725.742V120H719.883V96.3086H711.289V91.5625H734.453V96.3086ZM760.625 106.426C760.625 109.225 760.13 111.68 759.141 113.789C758.151 115.898 756.732 117.526 754.883 118.672C753.047 119.818 750.938 120.391 748.555 120.391C746.198 120.391 744.095 119.824 742.246 118.691C740.397 117.559 738.965 115.944 737.949 113.848C736.934 111.738 736.419 109.316 736.406 106.582V105.176C736.406 102.376 736.908 99.9154 737.91 97.793C738.926 95.6576 740.352 94.0234 742.188 92.8906C744.036 91.7448 746.146 91.1719 748.516 91.1719C750.885 91.1719 752.988 91.7448 754.824 92.8906C756.673 94.0234 758.099 95.6576 759.102 97.793C760.117 99.9154 760.625 102.37 760.625 105.156V106.426ZM754.688 105.137C754.688 102.155 754.154 99.8893 753.086 98.3398C752.018 96.7904 750.495 96.0156 748.516 96.0156C746.549 96.0156 745.033 96.7839 743.965 98.3203C742.897 99.8438 742.357 102.083 742.344 105.039V106.426C742.344 109.329 742.878 111.582 743.945 113.184C745.013 114.785 746.549 115.586 748.555 115.586C750.521 115.586 752.031 114.818 753.086 113.281C754.141 111.732 754.674 109.479 754.688 106.523V105.137ZM779.629 112.539C779.629 111.432 779.238 110.586 778.457 110C777.676 109.401 776.27 108.776 774.238 108.125C772.207 107.461 770.599 106.81 769.414 106.172C766.185 104.427 764.57 102.077 764.57 99.1211C764.57 97.5846 765 96.2174 765.859 95.0195C766.732 93.8086 767.975 92.8646 769.59 92.1875C771.217 91.5104 773.04 91.1719 775.059 91.1719C777.09 91.1719 778.9 91.543 780.488 92.2852C782.077 93.0143 783.307 94.0495 784.18 95.3906C785.065 96.7318 785.508 98.2552 785.508 99.9609H779.648C779.648 98.6589 779.238 97.6497 778.418 96.9336C777.598 96.2044 776.445 95.8398 774.961 95.8398C773.529 95.8398 772.415 96.1458 771.621 96.7578C770.827 97.3568 770.43 98.151 770.43 99.1406C770.43 100.065 770.892 100.84 771.816 101.465C772.754 102.09 774.128 102.676 775.938 103.223C779.271 104.225 781.699 105.469 783.223 106.953C784.746 108.438 785.508 110.286 785.508 112.5C785.508 114.961 784.577 116.895 782.715 118.301C780.853 119.694 778.346 120.391 775.195 120.391C773.008 120.391 771.016 119.993 769.219 119.199C767.422 118.392 766.048 117.292 765.098 115.898C764.16 114.505 763.691 112.891 763.691 111.055H769.57C769.57 114.193 771.445 115.762 775.195 115.762C776.589 115.762 777.676 115.482 778.457 114.922C779.238 114.349 779.629 113.555 779.629 112.539ZM806.602 107.676H795.352V115.293H808.555V120H789.492V91.5625H808.516V96.3086H795.352V103.086H806.602V107.676Z" fill="#565656"/>
<path d="M1019.86 115.293H1032.3V120H1014V91.5625H1019.86V115.293ZM1052.12 114.141H1041.85L1039.89 120H1033.66L1044.25 91.5625H1049.68L1060.32 120H1054.09L1052.12 114.141ZM1043.43 109.395H1050.54L1046.96 98.75L1043.43 109.395ZM1084.88 110.527C1084.65 113.587 1083.52 115.996 1081.48 117.754C1079.45 119.512 1076.76 120.391 1073.43 120.391C1069.78 120.391 1066.91 119.167 1064.82 116.719C1062.73 114.258 1061.69 110.885 1061.69 106.602V104.863C1061.69 102.129 1062.17 99.7201 1063.14 97.6367C1064.1 95.5534 1065.47 93.9583 1067.26 92.8516C1069.05 91.7318 1071.14 91.1719 1073.51 91.1719C1076.79 91.1719 1079.43 92.0508 1081.44 93.8086C1083.44 95.5664 1084.6 98.0339 1084.91 101.211H1079.05C1078.91 99.375 1078.4 98.0469 1077.51 97.2266C1076.64 96.3932 1075.3 95.9766 1073.51 95.9766C1071.55 95.9766 1070.09 96.6797 1069.11 98.0859C1068.15 99.4792 1067.65 101.647 1067.63 104.59V106.738C1067.63 109.811 1068.09 112.057 1069.02 113.477C1069.95 114.896 1071.42 115.605 1073.43 115.605C1075.24 115.605 1076.59 115.195 1077.47 114.375C1078.37 113.542 1078.89 112.259 1079.02 110.527H1084.88ZM1109.54 96.3086H1100.83V120H1094.97V96.3086H1086.38V91.5625H1109.54V96.3086ZM1135.71 106.426C1135.71 109.225 1135.22 111.68 1134.23 113.789C1133.24 115.898 1131.82 117.526 1129.97 118.672C1128.14 119.818 1126.03 120.391 1123.64 120.391C1121.29 120.391 1119.18 119.824 1117.34 118.691C1115.49 117.559 1114.05 115.944 1113.04 113.848C1112.02 111.738 1111.51 109.316 1111.5 106.582V105.176C1111.5 102.376 1112 99.9154 1113 97.793C1114.02 95.6576 1115.44 94.0234 1117.28 92.8906C1119.13 91.7448 1121.24 91.1719 1123.61 91.1719C1125.98 91.1719 1128.08 91.7448 1129.91 92.8906C1131.76 94.0234 1133.19 95.6576 1134.19 97.793C1135.21 99.9154 1135.71 102.37 1135.71 105.156V106.426ZM1129.78 105.137C1129.78 102.155 1129.24 99.8893 1128.18 98.3398C1127.11 96.7904 1125.58 96.0156 1123.61 96.0156C1121.64 96.0156 1120.12 96.7839 1119.05 98.3203C1117.99 99.8438 1117.45 102.083 1117.43 105.039V106.426C1117.43 109.329 1117.97 111.582 1119.04 113.184C1120.1 114.785 1121.64 115.586 1123.64 115.586C1125.61 115.586 1127.12 114.818 1128.18 113.281C1129.23 111.732 1129.76 109.479 1129.78 106.523V105.137ZM1154.72 112.539C1154.72 111.432 1154.33 110.586 1153.55 110C1152.77 109.401 1151.36 108.776 1149.33 108.125C1147.3 107.461 1145.69 106.81 1144.5 106.172C1141.27 104.427 1139.66 102.077 1139.66 99.1211C1139.66 97.5846 1140.09 96.2174 1140.95 95.0195C1141.82 93.8086 1143.07 92.8646 1144.68 92.1875C1146.31 91.5104 1148.13 91.1719 1150.15 91.1719C1152.18 91.1719 1153.99 91.543 1155.58 92.2852C1157.17 93.0143 1158.4 94.0495 1159.27 95.3906C1160.15 96.7318 1160.6 98.2552 1160.6 99.9609H1154.74C1154.74 98.6589 1154.33 97.6497 1153.51 96.9336C1152.69 96.2044 1151.54 95.8398 1150.05 95.8398C1148.62 95.8398 1147.51 96.1458 1146.71 96.7578C1145.92 97.3568 1145.52 98.151 1145.52 99.1406C1145.52 100.065 1145.98 100.84 1146.91 101.465C1147.84 102.09 1149.22 102.676 1151.03 103.223C1154.36 104.225 1156.79 105.469 1158.31 106.953C1159.84 108.438 1160.6 110.286 1160.6 112.5C1160.6 114.961 1159.67 116.895 1157.8 118.301C1155.94 119.694 1153.44 120.391 1150.29 120.391C1148.1 120.391 1146.11 119.993 1144.31 119.199C1142.51 118.392 1141.14 117.292 1140.19 115.898C1139.25 114.505 1138.78 112.891 1138.78 111.055H1144.66C1144.66 114.193 1146.54 115.762 1150.29 115.762C1151.68 115.762 1152.77 115.482 1153.55 114.922C1154.33 114.349 1154.72 113.555 1154.72 112.539ZM1181.69 107.676H1170.44V115.293H1183.64V120H1164.58V91.5625H1183.61V96.3086H1170.44V103.086H1181.69V107.676Z" fill="#565656"/>
<path d="M283.5 167L343.689 271.25H223.311L283.5 167Z" fill="#D77777"/>
<circle cx="405.5" cy="224.5" r="57.5" fill="#E1B572"/>
<circle cx="649.5" cy="224.5" r="57.5" fill="#E1B572"/>
<circle cx="789.5" cy="224.5" r="57.5" fill="#E1B572"/>
<circle cx="1040.5" cy="224.5" r="57.5" fill="#E1B572"/>
<rect x="1123" y="167" width="110" height="110" fill="#6BB3E7"/>
<defs>
<filter id="filter0_d" x="109" y="23" width="1232" height="347" filterUnits="userSpaceOnUse" color-interpolation-filters="sRGB">
<feFlood flood-opacity="0" result="BackgroundImageFix"/>
<feColorMatrix in="SourceAlpha" type="matrix" values="0 0 0 0 0 0 0 0 0 0 0 0 0 0 0 0 0 0 127 0"/>
<feOffset dx="5" dy="5"/>
<feGaussianBlur stdDeviation="10"/>
<feColorMatrix type="matrix" values="0 0 0 0 0.579167 0 0 0 0 0.579167 0 0 0 0 0.579167 0 0 0 0.25 0"/>
<feBlend mode="normal" in2="BackgroundImageFix" result="effect1_dropShadow"/>
<feBlend mode="normal" in="SourceGraphic" in2="effect1_dropShadow" result="shape"/>
</filter>
</defs>
</svg>
