<svg width="1440" height="416" viewBox="0 0 1440 416" fill="none" xmlns="http://www.w3.org/2000/svg">
<rect width="1440" height="416" fill="#FAFAFA"/>
<g filter="url(#filter0_d)">
<rect x="124" y="46" width="1192" height="307" rx="50" fill="#FCFCFC"/>
</g>
<path d="M262.488 116.379H251.238V128H245.379V99.5625H263.895V104.309H251.238V111.652H262.488V116.379ZM277.82 117.59H273.152V128H267.293V99.5625H277.859C281.219 99.5625 283.81 100.311 285.633 101.809C287.456 103.306 288.367 105.422 288.367 108.156C288.367 110.096 287.944 111.717 287.098 113.02C286.264 114.309 284.995 115.337 283.289 116.105L289.441 127.727V128H283.152L277.82 117.59ZM273.152 112.844H277.879C279.35 112.844 280.49 112.473 281.297 111.73C282.104 110.975 282.508 109.94 282.508 108.625C282.508 107.284 282.124 106.229 281.355 105.461C280.6 104.693 279.435 104.309 277.859 104.309H273.152V112.844ZM314.363 99.5625V118.293C314.363 121.405 313.387 123.866 311.434 125.676C309.493 127.486 306.837 128.391 303.465 128.391C300.145 128.391 297.508 127.512 295.555 125.754C293.602 123.996 292.605 121.581 292.566 118.508V99.5625H298.426V118.332C298.426 120.194 298.868 121.555 299.754 122.414C300.652 123.26 301.889 123.684 303.465 123.684C306.759 123.684 308.432 121.952 308.484 118.488V99.5625H314.363ZM341.492 118.527C341.271 121.587 340.138 123.996 338.094 125.754C336.062 127.512 333.38 128.391 330.047 128.391C326.401 128.391 323.53 127.167 321.434 124.719C319.35 122.258 318.309 118.885 318.309 114.602V112.863C318.309 110.129 318.79 107.72 319.754 105.637C320.717 103.553 322.091 101.958 323.875 100.852C325.672 99.7318 327.755 99.1719 330.125 99.1719C333.406 99.1719 336.049 100.051 338.055 101.809C340.06 103.566 341.219 106.034 341.531 109.211H335.672C335.529 107.375 335.014 106.047 334.129 105.227C333.257 104.393 331.922 103.977 330.125 103.977C328.172 103.977 326.707 104.68 325.73 106.086C324.767 107.479 324.272 109.647 324.246 112.59V114.738C324.246 117.811 324.708 120.057 325.633 121.477C326.57 122.896 328.042 123.605 330.047 123.605C331.857 123.605 333.204 123.195 334.09 122.375C334.988 121.542 335.503 120.259 335.633 118.527H341.492ZM366.16 104.309H357.449V128H351.59V104.309H342.996V99.5625H366.16V104.309ZM392.332 114.426C392.332 117.225 391.837 119.68 390.848 121.789C389.858 123.898 388.439 125.526 386.59 126.672C384.754 127.818 382.645 128.391 380.262 128.391C377.905 128.391 375.802 127.824 373.953 126.691C372.104 125.559 370.672 123.944 369.656 121.848C368.641 119.738 368.126 117.316 368.113 114.582V113.176C368.113 110.376 368.615 107.915 369.617 105.793C370.633 103.658 372.059 102.023 373.895 100.891C375.743 99.7448 377.853 99.1719 380.223 99.1719C382.592 99.1719 384.695 99.7448 386.531 100.891C388.38 102.023 389.806 103.658 390.809 105.793C391.824 107.915 392.332 110.37 392.332 113.156V114.426ZM386.395 113.137C386.395 110.155 385.861 107.889 384.793 106.34C383.725 104.79 382.202 104.016 380.223 104.016C378.257 104.016 376.74 104.784 375.672 106.32C374.604 107.844 374.064 110.083 374.051 113.039V114.426C374.051 117.329 374.585 119.582 375.652 121.184C376.72 122.785 378.257 123.586 380.262 123.586C382.228 123.586 383.738 122.818 384.793 121.281C385.848 119.732 386.382 117.479 386.395 114.523V113.137ZM411.336 120.539C411.336 119.432 410.945 118.586 410.164 118C409.383 117.401 407.977 116.776 405.945 116.125C403.914 115.461 402.306 114.81 401.121 114.172C397.892 112.427 396.277 110.077 396.277 107.121C396.277 105.585 396.707 104.217 397.566 103.02C398.439 101.809 399.682 100.865 401.297 100.188C402.924 99.5104 404.747 99.1719 406.766 99.1719C408.797 99.1719 410.607 99.543 412.195 100.285C413.784 101.014 415.014 102.049 415.887 103.391C416.772 104.732 417.215 106.255 417.215 107.961H411.355C411.355 106.659 410.945 105.65 410.125 104.934C409.305 104.204 408.152 103.84 406.668 103.84C405.236 103.84 404.122 104.146 403.328 104.758C402.534 105.357 402.137 106.151 402.137 107.141C402.137 108.065 402.599 108.84 403.523 109.465C404.461 110.09 405.835 110.676 407.645 111.223C410.978 112.225 413.406 113.469 414.93 114.953C416.453 116.438 417.215 118.286 417.215 120.5C417.215 122.961 416.284 124.895 414.422 126.301C412.56 127.694 410.053 128.391 406.902 128.391C404.715 128.391 402.723 127.993 400.926 127.199C399.129 126.392 397.755 125.292 396.805 123.898C395.867 122.505 395.398 120.891 395.398 119.055H401.277C401.277 122.193 403.152 123.762 406.902 123.762C408.296 123.762 409.383 123.482 410.164 122.922C410.945 122.349 411.336 121.555 411.336 120.539ZM438.309 115.676H427.059V123.293H440.262V128H421.199V99.5625H440.223V104.309H427.059V111.086H438.309V115.676Z" fill="#565656"/>
<path d="M657.188 124.406C656.133 125.669 654.642 126.652 652.715 127.355C650.788 128.046 648.652 128.391 646.309 128.391C643.848 128.391 641.686 127.857 639.824 126.789C637.975 125.708 636.543 124.146 635.527 122.102C634.525 120.057 634.01 117.655 633.984 114.895V112.961C633.984 110.122 634.46 107.668 635.41 105.598C636.374 103.514 637.754 101.926 639.551 100.832C641.361 99.7253 643.477 99.1719 645.898 99.1719C649.271 99.1719 651.908 99.9792 653.809 101.594C655.71 103.195 656.836 105.533 657.188 108.605H651.484C651.224 106.978 650.645 105.786 649.746 105.031C648.861 104.276 647.637 103.898 646.074 103.898C644.082 103.898 642.565 104.647 641.523 106.145C640.482 107.642 639.954 109.868 639.941 112.824V114.641C639.941 117.622 640.508 119.875 641.641 121.398C642.773 122.922 644.434 123.684 646.621 123.684C648.822 123.684 650.391 123.215 651.328 122.277V117.375H645.996V113.059H657.188V124.406ZM667.812 123.293H680.254V128H661.953V99.5625H667.812V123.293ZM704.688 99.5625V118.293C704.688 121.405 703.711 123.866 701.758 125.676C699.818 127.486 697.161 128.391 693.789 128.391C690.469 128.391 687.832 127.512 685.879 125.754C683.926 123.996 682.93 121.581 682.891 118.508V99.5625H688.75V118.332C688.75 120.194 689.193 121.555 690.078 122.414C690.977 123.26 692.214 123.684 693.789 123.684C697.083 123.684 698.757 121.952 698.809 118.488V99.5625H704.688ZM731.816 118.527C731.595 121.587 730.462 123.996 728.418 125.754C726.387 127.512 723.704 128.391 720.371 128.391C716.725 128.391 713.854 127.167 711.758 124.719C709.674 122.258 708.633 118.885 708.633 114.602V112.863C708.633 110.129 709.115 107.72 710.078 105.637C711.042 103.553 712.415 101.958 714.199 100.852C715.996 99.7318 718.079 99.1719 720.449 99.1719C723.73 99.1719 726.374 100.051 728.379 101.809C730.384 103.566 731.543 106.034 731.855 109.211H725.996C725.853 107.375 725.339 106.047 724.453 105.227C723.581 104.393 722.246 103.977 720.449 103.977C718.496 103.977 717.031 104.68 716.055 106.086C715.091 107.479 714.596 109.647 714.57 112.59V114.738C714.57 117.811 715.033 120.057 715.957 121.477C716.895 122.896 718.366 123.605 720.371 123.605C722.181 123.605 723.529 123.195 724.414 122.375C725.312 121.542 725.827 120.259 725.957 118.527H731.816ZM759.023 114.426C759.023 117.225 758.529 119.68 757.539 121.789C756.549 123.898 755.13 125.526 753.281 126.672C751.445 127.818 749.336 128.391 746.953 128.391C744.596 128.391 742.493 127.824 740.645 126.691C738.796 125.559 737.363 123.944 736.348 121.848C735.332 119.738 734.818 117.316 734.805 114.582V113.176C734.805 110.376 735.306 107.915 736.309 105.793C737.324 103.658 738.75 102.023 740.586 100.891C742.435 99.7448 744.544 99.1719 746.914 99.1719C749.284 99.1719 751.387 99.7448 753.223 100.891C755.072 102.023 756.497 103.658 757.5 105.793C758.516 107.915 759.023 110.37 759.023 113.156V114.426ZM753.086 113.137C753.086 110.155 752.552 107.889 751.484 106.34C750.417 104.79 748.893 104.016 746.914 104.016C744.948 104.016 743.431 104.784 742.363 106.32C741.296 107.844 740.755 110.083 740.742 113.039V114.426C740.742 117.329 741.276 119.582 742.344 121.184C743.411 122.785 744.948 123.586 746.953 123.586C748.919 123.586 750.43 122.818 751.484 121.281C752.539 119.732 753.073 117.479 753.086 114.523V113.137ZM778.027 120.539C778.027 119.432 777.637 118.586 776.855 118C776.074 117.401 774.668 116.776 772.637 116.125C770.605 115.461 768.997 114.81 767.812 114.172C764.583 112.427 762.969 110.077 762.969 107.121C762.969 105.585 763.398 104.217 764.258 103.02C765.13 101.809 766.374 100.865 767.988 100.188C769.616 99.5104 771.439 99.1719 773.457 99.1719C775.488 99.1719 777.298 99.543 778.887 100.285C780.475 101.014 781.706 102.049 782.578 103.391C783.464 104.732 783.906 106.255 783.906 107.961H778.047C778.047 106.659 777.637 105.65 776.816 104.934C775.996 104.204 774.844 103.84 773.359 103.84C771.927 103.84 770.814 104.146 770.02 104.758C769.225 105.357 768.828 106.151 768.828 107.141C768.828 108.065 769.29 108.84 770.215 109.465C771.152 110.09 772.526 110.676 774.336 111.223C777.669 112.225 780.098 113.469 781.621 114.953C783.145 116.438 783.906 118.286 783.906 120.5C783.906 122.961 782.975 124.895 781.113 126.301C779.251 127.694 776.745 128.391 773.594 128.391C771.406 128.391 769.414 127.993 767.617 127.199C765.82 126.392 764.447 125.292 763.496 123.898C762.559 122.505 762.09 120.891 762.09 119.055H767.969C767.969 122.193 769.844 123.762 773.594 123.762C774.987 123.762 776.074 123.482 776.855 122.922C777.637 122.349 778.027 121.555 778.027 120.539ZM805 115.676H793.75V123.293H806.953V128H787.891V99.5625H806.914V104.309H793.75V111.086H805V115.676Z" fill="#565656"/>
<path d="M1009.41 124.406C1008.35 125.669 1006.86 126.652 1004.93 127.355C1003.01 128.046 1000.87 128.391 998.527 128.391C996.066 128.391 993.905 127.857 992.043 126.789C990.194 125.708 988.762 124.146 987.746 122.102C986.743 120.057 986.229 117.655 986.203 114.895V112.961C986.203 110.122 986.678 107.668 987.629 105.598C988.592 103.514 989.973 101.926 991.77 100.832C993.579 99.7253 995.695 99.1719 998.117 99.1719C1001.49 99.1719 1004.13 99.9792 1006.03 101.594C1007.93 103.195 1009.05 105.533 1009.41 108.605H1003.7C1003.44 106.978 1002.86 105.786 1001.96 105.031C1001.08 104.276 999.855 103.898 998.293 103.898C996.301 103.898 994.784 104.647 993.742 106.145C992.701 107.642 992.173 109.868 992.16 112.824V114.641C992.16 117.622 992.727 119.875 993.859 121.398C994.992 122.922 996.652 123.684 998.84 123.684C1001.04 123.684 1002.61 123.215 1003.55 122.277V117.375H998.215V113.059H1009.41V124.406ZM1030.23 122.141H1019.95L1018 128H1011.77L1022.36 99.5625H1027.79L1038.43 128H1032.2L1030.23 122.141ZM1021.54 117.395H1028.64L1025.07 106.75L1021.54 117.395ZM1046.95 123.293H1059.39V128H1041.09V99.5625H1046.95V123.293ZM1079.21 122.141H1068.94L1066.98 128H1060.75L1071.34 99.5625H1076.77L1087.41 128H1081.18L1079.21 122.141ZM1070.52 117.395H1077.63L1074.05 106.75L1070.52 117.395ZM1111.96 118.527C1111.74 121.587 1110.61 123.996 1108.57 125.754C1106.54 127.512 1103.85 128.391 1100.52 128.391C1096.87 128.391 1094 127.167 1091.91 124.719C1089.82 122.258 1088.78 118.885 1088.78 114.602V112.863C1088.78 110.129 1089.26 107.72 1090.23 105.637C1091.19 103.553 1092.56 101.958 1094.35 100.852C1096.14 99.7318 1098.23 99.1719 1100.6 99.1719C1103.88 99.1719 1106.52 100.051 1108.53 101.809C1110.53 103.566 1111.69 106.034 1112 109.211H1106.14C1106 107.375 1105.49 106.047 1104.6 105.227C1103.73 104.393 1102.39 103.977 1100.6 103.977C1098.64 103.977 1097.18 104.68 1096.2 106.086C1095.24 107.479 1094.74 109.647 1094.72 112.59V114.738C1094.72 117.811 1095.18 120.057 1096.11 121.477C1097.04 122.896 1098.51 123.605 1100.52 123.605C1102.33 123.605 1103.68 123.195 1104.56 122.375C1105.46 121.542 1105.98 120.259 1106.11 118.527H1111.96ZM1136.63 104.309H1127.92V128H1122.06V104.309H1113.47V99.5625H1136.63V104.309ZM1162.8 114.426C1162.8 117.225 1162.31 119.68 1161.32 121.789C1160.33 123.898 1158.91 125.526 1157.06 126.672C1155.23 127.818 1153.12 128.391 1150.73 128.391C1148.38 128.391 1146.27 127.824 1144.43 126.691C1142.58 125.559 1141.14 123.944 1140.13 121.848C1139.11 119.738 1138.6 117.316 1138.59 114.582V113.176C1138.59 110.376 1139.09 107.915 1140.09 105.793C1141.11 103.658 1142.53 102.023 1144.37 100.891C1146.22 99.7448 1148.33 99.1719 1150.7 99.1719C1153.07 99.1719 1155.17 99.7448 1157 100.891C1158.85 102.023 1160.28 103.658 1161.28 105.793C1162.3 107.915 1162.8 110.37 1162.8 113.156V114.426ZM1156.87 113.137C1156.87 110.155 1156.33 107.889 1155.27 106.34C1154.2 104.79 1152.67 104.016 1150.7 104.016C1148.73 104.016 1147.21 104.784 1146.14 106.32C1145.08 107.844 1144.54 110.083 1144.52 113.039V114.426C1144.52 117.329 1145.06 119.582 1146.12 121.184C1147.19 122.785 1148.73 123.586 1150.73 123.586C1152.7 123.586 1154.21 122.818 1155.27 121.281C1156.32 119.732 1156.85 117.479 1156.87 114.523V113.137ZM1181.81 120.539C1181.81 119.432 1181.42 118.586 1180.64 118C1179.86 117.401 1178.45 116.776 1176.42 116.125C1174.39 115.461 1172.78 114.81 1171.59 114.172C1168.36 112.427 1166.75 110.077 1166.75 107.121C1166.75 105.585 1167.18 104.217 1168.04 103.02C1168.91 101.809 1170.15 100.865 1171.77 100.188C1173.4 99.5104 1175.22 99.1719 1177.24 99.1719C1179.27 99.1719 1181.08 99.543 1182.67 100.285C1184.26 101.014 1185.49 102.049 1186.36 103.391C1187.24 104.732 1187.69 106.255 1187.69 107.961H1181.83C1181.83 106.659 1181.42 105.65 1180.6 104.934C1179.78 104.204 1178.62 103.84 1177.14 103.84C1175.71 103.84 1174.6 104.146 1173.8 104.758C1173.01 105.357 1172.61 106.151 1172.61 107.141C1172.61 108.065 1173.07 108.84 1174 109.465C1174.93 110.09 1176.31 110.676 1178.12 111.223C1181.45 112.225 1183.88 113.469 1185.4 114.953C1186.93 116.438 1187.69 118.286 1187.69 120.5C1187.69 122.961 1186.76 124.895 1184.89 126.301C1183.03 127.694 1180.53 128.391 1177.38 128.391C1175.19 128.391 1173.2 127.993 1171.4 127.199C1169.6 126.392 1168.23 125.292 1167.28 123.898C1166.34 122.505 1165.87 120.891 1165.87 119.055H1171.75C1171.75 122.193 1173.62 123.762 1177.38 123.762C1178.77 123.762 1179.86 123.482 1180.64 122.922C1181.42 122.349 1181.81 121.555 1181.81 120.539ZM1208.78 115.676H1197.53V123.293H1210.73V128H1191.67V99.5625H1210.7V104.309H1197.53V111.086H1208.78V115.676Z" fill="#565656"/>
<path d="M341.5 183L401.689 287.25H281.311L341.5 183Z" fill="#D77777"/>
<circle cx="719.5" cy="240.5" r="57.5" fill="#E1B572"/>
<rect x="1043" y="183" width="110" height="110" fill="#6BB3E7"/>
<defs>
<filter id="filter0_d" x="109" y="31" width="1232" height="347" filterUnits="userSpaceOnUse" color-interpolation-filters="sRGB">
<feFlood flood-opacity="0" result="BackgroundImageFix"/>
<feColorMatrix in="SourceAlpha" type="matrix" values="0 0 0 0 0 0 0 0 0 0 0 0 0 0 0 0 0 0 127 0"/>
<feOffset dx="5" dy="5"/>
<feGaussianBlur stdDeviation="10"/>
<feColorMatrix type="matrix" values="0 0 0 0 0.579167 0 0 0 0 0.579167 0 0 0 0 0.579167 0 0 0 0.25 0"/>
<feBlend mode="normal" in2="BackgroundImageFix" result="effect1_dropShadow"/>
<feBlend mode="normal" in="SourceGraphic" in2="effect1_dropShadow" result="shape"/>
</filter>
</defs>
</svg>
