<svg width="1440" height="585" viewBox="0 0 1440 585" fill="none" xmlns="http://www.w3.org/2000/svg">
<rect width="1440" height="585" fill="#FAFAFA"/>
<g filter="url(#filter0_d)">
<rect x="93" y="38" width="1253" height="479" rx="50" fill="#E8E8E8"/>
</g>
<path d="M305.332 116.406C304.277 117.669 302.786 118.652 300.859 119.355C298.932 120.046 296.797 120.391 294.453 120.391C291.992 120.391 289.831 119.857 287.969 118.789C286.12 117.708 284.688 116.146 283.672 114.102C282.669 112.057 282.155 109.655 282.129 106.895V104.961C282.129 102.122 282.604 99.668 283.555 97.5977C284.518 95.5143 285.898 93.9258 287.695 92.832C289.505 91.7253 291.621 91.1719 294.043 91.1719C297.415 91.1719 300.052 91.9792 301.953 93.5938C303.854 95.1953 304.98 97.5326 305.332 100.605H299.629C299.368 98.9779 298.789 97.7865 297.891 97.0312C297.005 96.276 295.781 95.8984 294.219 95.8984C292.227 95.8984 290.71 96.6471 289.668 98.1445C288.626 99.6419 288.099 101.868 288.086 104.824V106.641C288.086 109.622 288.652 111.875 289.785 113.398C290.918 114.922 292.578 115.684 294.766 115.684C296.966 115.684 298.535 115.215 299.473 114.277V109.375H294.141V105.059H305.332V116.406ZM315.957 115.293H328.398V120H310.098V91.5625H315.957V115.293ZM336.113 104.375L342.031 91.5625H348.438L339.102 109.688V120H333.145V109.688L323.809 91.5625H330.234L336.113 104.375ZM372.773 110.527C372.552 113.587 371.419 115.996 369.375 117.754C367.344 119.512 364.661 120.391 361.328 120.391C357.682 120.391 354.811 119.167 352.715 116.719C350.632 114.258 349.59 110.885 349.59 106.602V104.863C349.59 102.129 350.072 99.7201 351.035 97.6367C351.999 95.5534 353.372 93.9583 355.156 92.8516C356.953 91.7318 359.036 91.1719 361.406 91.1719C364.688 91.1719 367.331 92.0508 369.336 93.8086C371.341 95.5664 372.5 98.0339 372.812 101.211H366.953C366.81 99.375 366.296 98.0469 365.41 97.2266C364.538 96.3932 363.203 95.9766 361.406 95.9766C359.453 95.9766 357.988 96.6797 357.012 98.0859C356.048 99.4792 355.553 101.647 355.527 104.59V106.738C355.527 109.811 355.99 112.057 356.914 113.477C357.852 114.896 359.323 115.605 361.328 115.605C363.138 115.605 364.486 115.195 365.371 114.375C366.27 113.542 366.784 112.259 366.914 110.527H372.773ZM399.98 106.426C399.98 109.225 399.486 111.68 398.496 113.789C397.507 115.898 396.087 117.526 394.238 118.672C392.402 119.818 390.293 120.391 387.91 120.391C385.553 120.391 383.451 119.824 381.602 118.691C379.753 117.559 378.32 115.944 377.305 113.848C376.289 111.738 375.775 109.316 375.762 106.582V105.176C375.762 102.376 376.263 99.9154 377.266 97.793C378.281 95.6576 379.707 94.0234 381.543 92.8906C383.392 91.7448 385.501 91.1719 387.871 91.1719C390.241 91.1719 392.344 91.7448 394.18 92.8906C396.029 94.0234 397.454 95.6576 398.457 97.793C399.473 99.9154 399.98 102.37 399.98 105.156V106.426ZM394.043 105.137C394.043 102.155 393.509 99.8893 392.441 98.3398C391.374 96.7904 389.85 96.0156 387.871 96.0156C385.905 96.0156 384.388 96.7839 383.32 98.3203C382.253 99.8438 381.712 102.083 381.699 105.039V106.426C381.699 109.329 382.233 111.582 383.301 113.184C384.368 114.785 385.905 115.586 387.91 115.586C389.876 115.586 391.387 114.818 392.441 113.281C393.496 111.732 394.03 109.479 394.043 106.523V105.137ZM426.738 116.406C425.684 117.669 424.193 118.652 422.266 119.355C420.339 120.046 418.203 120.391 415.859 120.391C413.398 120.391 411.237 119.857 409.375 118.789C407.526 117.708 406.094 116.146 405.078 114.102C404.076 112.057 403.561 109.655 403.535 106.895V104.961C403.535 102.122 404.01 99.668 404.961 97.5977C405.924 95.5143 407.305 93.9258 409.102 92.832C410.911 91.7253 413.027 91.1719 415.449 91.1719C418.822 91.1719 421.458 91.9792 423.359 93.5938C425.26 95.1953 426.387 97.5326 426.738 100.605H421.035C420.775 98.9779 420.195 97.7865 419.297 97.0312C418.411 96.276 417.188 95.8984 415.625 95.8984C413.633 95.8984 412.116 96.6471 411.074 98.1445C410.033 99.6419 409.505 101.868 409.492 104.824V106.641C409.492 109.622 410.059 111.875 411.191 113.398C412.324 114.922 413.984 115.684 416.172 115.684C418.372 115.684 419.941 115.215 420.879 114.277V109.375H415.547V105.059H426.738V116.406ZM448.613 107.676H437.363V115.293H450.566V120H431.504V91.5625H450.527V96.3086H437.363V103.086H448.613V107.676ZM477.129 120H471.27L459.863 101.289V120H454.004V91.5625H459.863L471.289 110.312V91.5625H477.129V120Z" fill="#565656"/>
<path d="M981.312 112.539C981.312 111.432 980.922 110.586 980.141 110C979.359 109.401 977.953 108.776 975.922 108.125C973.891 107.461 972.283 106.81 971.098 106.172C967.868 104.427 966.254 102.077 966.254 99.1211C966.254 97.5846 966.684 96.2174 967.543 95.0195C968.415 93.8086 969.659 92.8646 971.273 92.1875C972.901 91.5104 974.724 91.1719 976.742 91.1719C978.773 91.1719 980.583 91.543 982.172 92.2852C983.76 93.0143 984.991 94.0495 985.863 95.3906C986.749 96.7318 987.191 98.2552 987.191 99.9609H981.332C981.332 98.6589 980.922 97.6497 980.102 96.9336C979.281 96.2044 978.129 95.8398 976.645 95.8398C975.212 95.8398 974.099 96.1458 973.305 96.7578C972.51 97.3568 972.113 98.151 972.113 99.1406C972.113 100.065 972.576 100.84 973.5 101.465C974.438 102.09 975.811 102.676 977.621 103.223C980.954 104.225 983.383 105.469 984.906 106.953C986.43 108.438 987.191 110.286 987.191 112.5C987.191 114.961 986.26 116.895 984.398 118.301C982.536 119.694 980.03 120.391 976.879 120.391C974.691 120.391 972.699 119.993 970.902 119.199C969.105 118.392 967.732 117.292 966.781 115.898C965.844 114.505 965.375 112.891 965.375 111.055H971.254C971.254 114.193 973.129 115.762 976.879 115.762C978.272 115.762 979.359 115.482 980.141 114.922C980.922 114.349 981.312 113.555 981.312 112.539ZM1012.58 96.3086H1003.87V120H998.012V96.3086H989.418V91.5625H1012.58V96.3086ZM1029.65 114.141H1019.38L1017.43 120H1011.2L1021.78 91.5625H1027.21L1037.86 120H1031.62L1029.65 114.141ZM1020.96 109.395H1028.07L1024.5 98.75L1020.96 109.395ZM1051.04 109.59H1046.37V120H1040.51V91.5625H1051.08C1054.44 91.5625 1057.03 92.3112 1058.85 93.8086C1060.67 95.306 1061.59 97.4219 1061.59 100.156C1061.59 102.096 1061.16 103.717 1060.32 105.02C1059.48 106.309 1058.21 107.337 1056.51 108.105L1062.66 119.727V120H1056.37L1051.04 109.59ZM1046.37 104.844H1051.1C1052.57 104.844 1053.71 104.473 1054.52 103.73C1055.32 102.975 1055.73 101.94 1055.73 100.625C1055.73 99.2839 1055.34 98.2292 1054.57 97.4609C1053.82 96.6927 1052.65 96.3086 1051.08 96.3086H1046.37V104.844ZM1088.38 110.527C1088.16 113.587 1087.03 115.996 1084.98 117.754C1082.95 119.512 1080.27 120.391 1076.94 120.391C1073.29 120.391 1070.42 119.167 1068.32 116.719C1066.24 114.258 1065.2 110.885 1065.2 106.602V104.863C1065.2 102.129 1065.68 99.7201 1066.64 97.6367C1067.61 95.5534 1068.98 93.9583 1070.77 92.8516C1072.56 91.7318 1074.65 91.1719 1077.02 91.1719C1080.3 91.1719 1082.94 92.0508 1084.95 93.8086C1086.95 95.5664 1088.11 98.0339 1088.42 101.211H1082.56C1082.42 99.375 1081.9 98.0469 1081.02 97.2266C1080.15 96.3932 1078.81 95.9766 1077.02 95.9766C1075.06 95.9766 1073.6 96.6797 1072.62 98.0859C1071.66 99.4792 1071.16 101.647 1071.14 104.59V106.738C1071.14 109.811 1071.6 112.057 1072.52 113.477C1073.46 114.896 1074.93 115.605 1076.94 115.605C1078.75 115.605 1080.1 115.195 1080.98 114.375C1081.88 113.542 1082.39 112.259 1082.52 110.527H1088.38ZM1115.38 120H1109.52V107.812H1098.09V120H1092.23V91.5625H1098.09V103.086H1109.52V91.5625H1115.38V120Z" fill="#565656"/>
<line x1="229.5" y1="225.5" x2="468.5" y2="225.5" stroke="#565656" stroke-width="7" stroke-linecap="round"/>
<line x1="853.5" y1="210.5" x2="982.5" y2="210.5" stroke="#565656" stroke-width="7" stroke-linecap="round"/>
<line x1="989.5" y1="410.5" x2="1118.5" y2="410.5" stroke="#565656" stroke-width="7" stroke-linecap="round"/>
<line x1="864.5" y1="332.5" x2="864.5" y2="203.5" stroke="#565656" stroke-width="7" stroke-linecap="round"/>
<line x1="966.5" y1="332.5" x2="966.5" y2="203.5" stroke="#565656" stroke-width="7" stroke-linecap="round"/>
<line x1="854.5" y1="310.5" x2="983.5" y2="310.5" stroke="#565656" stroke-width="7" stroke-linecap="round"/>
<line x1="972.217" y1="420.167" x2="881" y2="328.95" stroke="#565656" stroke-width="7" stroke-linecap="round"/>
<line x1="865" y1="413.813" x2="954.813" y2="324" stroke="#565656" stroke-width="7" stroke-linecap="round"/>
<line x1="347.5" y1="338.5" x2="586.5" y2="338.5" stroke="#565656" stroke-width="7" stroke-linecap="round"/>
<line x1="493.451" y1="239.164" x2="519.164" y2="313.549" stroke="#565656" stroke-width="7" stroke-linecap="round"/>
<circle cx="207.5" cy="225.5" r="37.5" fill="#E1B572"/>
<circle cx="299.5" cy="225.5" r="37.5" fill="#E1B572"/>
<circle cx="391.5" cy="225.5" r="37.5" fill="#E1B572"/>
<circle cx="483.5" cy="225.5" r="37.5" fill="#E1B572"/>
<circle cx="337.5" cy="339.5" r="37.5" fill="#E1B572"/>
<circle cx="429.5" cy="339.5" r="37.5" fill="#E1B572"/>
<circle cx="521.5" cy="339.5" r="37.5" fill="#E1B572"/>
<circle cx="613.5" cy="339.5" r="37.5" fill="#E1B572"/>
<circle cx="966.5" cy="409.5" r="37.5" fill="#E1B572"/>
<circle cx="867.5" cy="411.5" r="37.5" fill="#E1B572"/>
<circle cx="966.5" cy="311.5" r="37.5" fill="#E1B572"/>
<circle cx="867.5" cy="311.5" r="37.5" fill="#E1B572"/>
<circle cx="966.5" cy="211.5" r="37.5" fill="#E1B572"/>
<circle cx="867.5" cy="211.5" r="37.5" fill="#E1B572"/>
<line x1="1095.5" y1="210.5" x2="1224.5" y2="210.5" stroke="#565656" stroke-width="7" stroke-linecap="round"/>
<line x1="1106.5" y1="332.5" x2="1106.5" y2="203.5" stroke="#565656" stroke-width="7" stroke-linecap="round"/>
<line x1="1208.5" y1="332.5" x2="1208.5" y2="203.5" stroke="#565656" stroke-width="7" stroke-linecap="round"/>
<line x1="1096.5" y1="310.5" x2="1225.5" y2="310.5" stroke="#565656" stroke-width="7" stroke-linecap="round"/>
<line x1="1214.22" y1="420.167" x2="1123" y2="328.95" stroke="#565656" stroke-width="7" stroke-linecap="round"/>
<line x1="1107" y1="413.813" x2="1196.81" y2="324" stroke="#565656" stroke-width="7" stroke-linecap="round"/>
<circle cx="1208.5" cy="409.5" r="37.5" fill="#E1B572"/>
<circle cx="1109.5" cy="411.5" r="37.5" fill="#E1B572"/>
<circle cx="1208.5" cy="311.5" r="37.5" fill="#E1B572"/>
<circle cx="1109.5" cy="311.5" r="37.5" fill="#E1B572"/>
<circle cx="1208.5" cy="211.5" r="37.5" fill="#E1B572"/>
<circle cx="1109.5" cy="211.5" r="37.5" fill="#E1B572"/>
<defs>
<filter id="filter0_d" x="78" y="23" width="1293" height="519" filterUnits="userSpaceOnUse" color-interpolation-filters="sRGB">
<feFlood flood-opacity="0" result="BackgroundImageFix"/>
<feColorMatrix in="SourceAlpha" type="matrix" values="0 0 0 0 0 0 0 0 0 0 0 0 0 0 0 0 0 0 127 0"/>
<feOffset dx="5" dy="5"/>
<feGaussianBlur stdDeviation="10"/>
<feColorMatrix type="matrix" values="0 0 0 0 0.579167 0 0 0 0 0.579167 0 0 0 0 0.579167 0 0 0 0.25 0"/>
<feBlend mode="normal" in2="BackgroundImageFix" result="effect1_dropShadow"/>
<feBlend mode="normal" in="SourceGraphic" in2="effect1_dropShadow" result="shape"/>
</filter>
</defs>
</svg>
